<svg xmlns="http://www.w3.org/2000/svg" xmlns:xlink="http://www.w3.org/1999/xlink" width="500" zoomAndPan="magnify" viewBox="0 0 375 74.999997" height="100" preserveAspectRatio="xMidYMid meet" version="1.0"><defs><g/><clipPath id="79b313572d"><path d="M 106.21875 26.78125 L 268.78125 26.78125 L 268.78125 41.59375 L 106.21875 41.59375 Z M 106.21875 26.78125 " clip-rule="nonzero"/></clipPath></defs><rect x="-37.5" width="450" fill="#ffffff" y="-7.5" height="89.999996" fill-opacity="1"/><rect x="-37.5" width="450" fill="#ffffff" y="-7.5" height="89.999996" fill-opacity="1"/><rect x="-37.5" width="450" fill="#041c32" y="-7.5" height="89.999996" fill-opacity="1"/><g fill="#fbfaf9" fill-opacity="1"><g transform="translate(104.72122, 56.55053)"><g><path d="M 36.539062 -6.710938 L 25.9375 -45.113281 L 14.605469 -45.113281 C 15.113281 -43.476562 15 -42.6875 14.605469 -41.109375 L 5.019531 -6.089844 C 4.453125 -4.003906 4.171875 -2.761719 2.820312 0 L 5.019531 0 C 5.1875 -2.648438 5.695312 -4.003906 6.257812 -6.144531 L 8.964844 -16.128906 L 23.851562 -16.128906 L 26.445312 -6.710938 C 27.179688 -4.003906 27.574219 -2.820312 27.6875 0 L 39.191406 0 C 37.949219 -2.253906 37.328125 -3.722656 36.539062 -6.710938 Z M 9.304688 -17.3125 L 16.351562 -43.136719 L 23.515625 -17.3125 Z M 9.304688 -17.3125 "/></g></g></g><g fill="#fbfaf9" fill-opacity="1"><g transform="translate(143.909678, 56.55053)"><g><path d="M 40.65625 -6.035156 L 23.34375 -28.535156 L 33.890625 -39.417969 C 35.921875 -41.445312 37.386719 -42.914062 40.207031 -45.113281 L 37.273438 -45.113281 C 35.808594 -42.914062 34.453125 -41.503906 32.199219 -39.246094 L 14.042969 -20.695312 L 14.042969 -33.042969 C 14.042969 -38.289062 14.210938 -40.828125 14.660156 -45.113281 L 3.949219 -45.113281 C 4.398438 -40.828125 4.566406 -38.289062 4.566406 -33.042969 L 4.566406 -12.066406 C 4.566406 -6.824219 4.398438 -4.285156 3.949219 0 L 14.660156 0 C 14.210938 -4.285156 14.042969 -6.824219 14.042969 -12.066406 L 14.042969 -19.003906 L 16.523438 -21.539062 L 28.644531 -6.035156 C 30.789062 -3.15625 31.578125 -2.199219 32.648438 0 L 46.632812 0 C 43.871094 -2.144531 42.574219 -3.550781 40.65625 -6.035156 Z M 40.65625 -6.035156 "/></g></g></g><g fill="#fbfaf9" fill-opacity="1"><g transform="translate(189.413434, 56.55053)"><g><path d="M 3.949219 0 L 6.203125 0 C 5.75 -4.285156 5.582031 -6.824219 5.582031 -12.066406 L 5.582031 -42.574219 L 5.808594 -42.519531 L 29.378906 0 L 40.714844 0 C 40.320312 -4.285156 40.148438 -6.824219 40.148438 -12.066406 L 40.148438 -33.042969 C 40.148438 -38.289062 40.320312 -40.828125 40.714844 -45.113281 L 38.515625 -45.113281 C 38.964844 -40.828125 39.078125 -38.289062 39.078125 -33.042969 L 39.078125 -2.539062 L 38.851562 -2.59375 L 15.339844 -45.113281 L 3.949219 -45.113281 C 4.398438 -40.828125 4.566406 -38.289062 4.566406 -33.042969 L 4.566406 -12.066406 C 4.566406 -6.824219 4.398438 -4.285156 3.949219 0 Z M 3.949219 0 "/></g></g></g><g fill="#fbfaf9" fill-opacity="1"><g transform="translate(231.252066, 56.55053)"><g><path d="M 2.253906 -13.082031 C 7.21875 -2.59375 14.042969 1.128906 23.0625 1.128906 C 30.449219 1.128906 36.765625 -2.648438 36.765625 -10.65625 C 36.765625 -18.269531 31.464844 -21.9375 20.808594 -29.039062 C 12.6875 -34.398438 10.207031 -36.144531 10.207031 -39.699219 C 10.207031 -42.742188 12.855469 -45.054688 17.3125 -45.054688 C 24.640625 -45.054688 27.519531 -38.796875 29.152344 -32.59375 L 35.808594 -35.355469 C 30.730469 -43.082031 25.035156 -46.238281 17.875 -46.238281 C 10.714844 -46.238281 4.90625 -42.855469 4.90625 -36.257812 C 4.90625 -30.167969 8.628906 -27.066406 17.820312 -20.808594 C 26.898438 -14.4375 31.523438 -11.445312 31.523438 -7.105469 C 31.523438 -2.648438 28.476562 -0.0546875 23.738281 -0.0546875 C 16.183594 -0.0546875 10.769531 -7.21875 8.964844 -16.804688 Z M 2.253906 -13.082031 "/></g></g></g><g clip-path="url(#79b313572d)"><path fill="#041c32" d="M 106.21875 26.78125 L 268.753906 26.78125 L 268.753906 41.902344 L 106.21875 41.902344 Z M 106.21875 26.78125 " fill-opacity="1" fill-rule="nonzero"/></g><g fill="#dec2ba" fill-opacity="1"><g transform="translate(130.377678, 36.319781)"><g><path d="M 3.265625 -0.953125 L 1.15625 -0.953125 L 0.75 0 L 0 0 L 1.859375 -4.203125 L 2.59375 -4.203125 L 4.4375 0 L 3.671875 0 Z M 3 -1.578125 L 2.203125 -3.453125 L 1.40625 -1.578125 Z M 3 -1.578125 "/></g></g></g><g fill="#dec2ba" fill-opacity="1"><g transform="translate(139.637536, 36.319781)"><g><path d="M 4.203125 0 L 3.5 0 L 1.265625 -3.015625 L 1.265625 0 L 0.546875 0 L 0.546875 -4.203125 L 1.25 -4.203125 L 3.5 -1.1875 L 3.5 -4.203125 L 4.203125 -4.203125 Z M 4.203125 0 "/></g></g></g><g fill="#dec2ba" fill-opacity="1"><g transform="translate(149.222271, 36.319781)"><g><path d="M 3.265625 -0.953125 L 1.15625 -0.953125 L 0.75 0 L 0 0 L 1.859375 -4.203125 L 2.59375 -4.203125 L 4.4375 0 L 3.671875 0 Z M 3 -1.578125 L 2.203125 -3.453125 L 1.40625 -1.578125 Z M 3 -1.578125 "/></g></g></g><g fill="#dec2ba" fill-opacity="1"><g transform="translate(158.482128, 36.319781)"><g><path d="M 4.203125 0 L 3.5 0 L 1.265625 -3.015625 L 1.265625 0 L 0.546875 0 L 0.546875 -4.203125 L 1.25 -4.203125 L 3.5 -1.1875 L 3.5 -4.203125 L 4.203125 -4.203125 Z M 4.203125 0 "/></g></g></g><g fill="#dec2ba" fill-opacity="1"><g transform="translate(168.066863, 36.319781)"><g><path d="M 0.546875 -4.203125 L 2.28125 -4.203125 C 2.90625 -4.203125 3.421875 -4.003906 3.828125 -3.609375 C 4.242188 -3.210938 4.453125 -2.707031 4.453125 -2.09375 C 4.453125 -1.488281 4.242188 -0.988281 3.828125 -0.59375 C 3.421875 -0.195312 2.898438 0 2.265625 0 L 0.546875 0 Z M 1.265625 -3.578125 L 1.265625 -0.640625 L 2.296875 -0.640625 C 2.710938 -0.640625 3.054688 -0.773438 3.328125 -1.046875 C 3.597656 -1.328125 3.734375 -1.675781 3.734375 -2.09375 C 3.734375 -2.519531 3.59375 -2.875 3.3125 -3.15625 C 3.03125 -3.4375 2.679688 -3.578125 2.265625 -3.578125 Z M 1.265625 -3.578125 "/></g></g></g><g fill="#dec2ba" fill-opacity="1"><g transform="translate(177.549323, 36.319781)"><g><path d="M 3.359375 0 L 1.984375 -1.859375 L 1.265625 -1.078125 L 1.265625 0 L 0.546875 0 L 0.546875 -4.203125 L 1.265625 -4.203125 L 1.265625 -2.03125 L 3.265625 -4.203125 L 4.109375 -4.203125 L 2.484375 -2.40625 L 4.21875 0 Z M 3.359375 0 "/></g></g></g><g fill="#dec2ba" fill-opacity="1"><g transform="translate(186.68886, 36.319781)"><g><path d="M 4.125 -4.203125 L 4.125 -1.75 C 4.125 -1.195312 3.960938 -0.757812 3.640625 -0.4375 C 3.316406 -0.125 2.867188 0.03125 2.296875 0.03125 C 1.734375 0.03125 1.285156 -0.125 0.953125 -0.4375 C 0.628906 -0.757812 0.46875 -1.195312 0.46875 -1.75 L 0.46875 -4.203125 L 1.171875 -4.203125 L 1.171875 -1.75 C 1.171875 -1.394531 1.269531 -1.113281 1.46875 -0.90625 C 1.675781 -0.707031 1.957031 -0.609375 2.3125 -0.609375 C 2.65625 -0.609375 2.925781 -0.707031 3.125 -0.90625 C 3.320312 -1.101562 3.421875 -1.382812 3.421875 -1.75 L 3.421875 -4.203125 Z M 4.125 -4.203125 "/></g></g></g><g fill="#dec2ba" fill-opacity="1"><g transform="translate(196.105139, 36.319781)"><g><path d="M 5 0 L 4.34375 0 L 4.34375 -3.140625 L 3.015625 -0.4375 L 2.546875 -0.4375 L 1.21875 -3.140625 L 1.21875 0 L 0.546875 0 L 0.546875 -4.203125 L 1.390625 -4.203125 L 2.78125 -1.40625 L 4.171875 -4.203125 L 5 -4.203125 Z M 5 0 "/></g></g></g><g fill="#dec2ba" fill-opacity="1"><g transform="translate(206.490031, 36.319781)"><g><path d="M 3.265625 -0.953125 L 1.15625 -0.953125 L 0.75 0 L 0 0 L 1.859375 -4.203125 L 2.59375 -4.203125 L 4.4375 0 L 3.671875 0 Z M 3 -1.578125 L 2.203125 -3.453125 L 1.40625 -1.578125 Z M 3 -1.578125 "/></g></g></g><g fill="#dec2ba" fill-opacity="1"><g transform="translate(215.749886, 36.319781)"><g><path d="M 3.21875 0 L 2.453125 -1.28125 C 2.410156 -1.269531 2.347656 -1.265625 2.265625 -1.265625 L 1.265625 -1.265625 L 1.265625 0 L 0.546875 0 L 0.546875 -4.203125 L 2.265625 -4.203125 C 2.796875 -4.203125 3.207031 -4.078125 3.5 -3.828125 C 3.800781 -3.578125 3.953125 -3.222656 3.953125 -2.765625 C 3.953125 -2.429688 3.875 -2.144531 3.71875 -1.90625 C 3.570312 -1.675781 3.363281 -1.507812 3.09375 -1.40625 L 4.03125 0 Z M 1.265625 -1.90625 L 2.265625 -1.90625 C 2.941406 -1.90625 3.28125 -2.1875 3.28125 -2.75 C 3.28125 -3.300781 2.941406 -3.578125 2.265625 -3.578125 L 1.265625 -3.578125 Z M 1.265625 -1.90625 "/></g></g></g><g fill="#dec2ba" fill-opacity="1"><g transform="translate(224.9195, 36.319781)"><g/></g></g><g fill="#dec2ba" fill-opacity="1"><g transform="translate(231.291583, 36.319781)"><g><path d="M 4.203125 0 L 3.5 0 L 1.265625 -3.015625 L 1.265625 0 L 0.546875 0 L 0.546875 -4.203125 L 1.25 -4.203125 L 3.5 -1.1875 L 3.5 -4.203125 L 4.203125 -4.203125 Z M 4.203125 0 "/></g></g></g><g fill="#dec2ba" fill-opacity="1"><g transform="translate(240.876321, 36.319781)"><g><path d="M 1.9375 -4.234375 C 2.476562 -4.234375 2.96875 -4.09375 3.40625 -3.8125 L 3.109375 -3.1875 C 2.679688 -3.445312 2.273438 -3.578125 1.890625 -3.578125 C 1.671875 -3.578125 1.5 -3.535156 1.375 -3.453125 C 1.257812 -3.378906 1.203125 -3.269531 1.203125 -3.125 C 1.203125 -2.988281 1.253906 -2.867188 1.359375 -2.765625 C 1.472656 -2.671875 1.613281 -2.597656 1.78125 -2.546875 C 1.957031 -2.503906 2.140625 -2.445312 2.328125 -2.375 C 2.523438 -2.3125 2.707031 -2.238281 2.875 -2.15625 C 3.050781 -2.082031 3.191406 -1.960938 3.296875 -1.796875 C 3.410156 -1.628906 3.46875 -1.425781 3.46875 -1.1875 C 3.46875 -0.820312 3.316406 -0.523438 3.015625 -0.296875 C 2.722656 -0.078125 2.34375 0.03125 1.875 0.03125 C 1.550781 0.03125 1.238281 -0.03125 0.9375 -0.15625 C 0.644531 -0.28125 0.382812 -0.441406 0.15625 -0.640625 L 0.46875 -1.25 C 0.675781 -1.0625 0.90625 -0.910156 1.15625 -0.796875 C 1.414062 -0.691406 1.660156 -0.640625 1.890625 -0.640625 C 2.140625 -0.640625 2.332031 -0.6875 2.46875 -0.78125 C 2.601562 -0.875 2.671875 -1 2.671875 -1.15625 C 2.671875 -1.300781 2.613281 -1.421875 2.5 -1.515625 C 2.394531 -1.617188 2.253906 -1.691406 2.078125 -1.734375 C 1.910156 -1.773438 1.726562 -1.828125 1.53125 -1.890625 C 1.34375 -1.960938 1.160156 -2.035156 0.984375 -2.109375 C 0.816406 -2.179688 0.675781 -2.300781 0.5625 -2.46875 C 0.457031 -2.632812 0.40625 -2.832031 0.40625 -3.0625 C 0.40625 -3.425781 0.546875 -3.710938 0.828125 -3.921875 C 1.109375 -4.128906 1.476562 -4.234375 1.9375 -4.234375 Z M 1.9375 -4.234375 "/></g></g></g></svg>